<?xml version="1.0" standalone="no"?>
<!DOCTYPE svg PUBLIC "-//W3C//DTD SVG 20010904//EN"
 "http://www.w3.org/TR/2001/REC-SVG-20010904/DTD/svg10.dtd">
<svg version="1.0" xmlns="http://www.w3.org/2000/svg"
 width="700.000000pt" height="700.000000pt" viewBox="0 0 700.000000 700.000000"
 preserveAspectRatio="xMidYMid meet">
<metadata>
Created by potrace 1.11, written by Peter Selinger 2001-2013
</metadata>
<g transform="translate(0.000000,700.000000) scale(0.100000,-0.100000)"
fill="#000000" stroke="none">
<path d="M3478 6566 c-1 -2 -66 -6 -143 -10 -77 -4 -153 -8 -170 -10 -16 -2
-59 -6 -95 -10 -36 -4 -87 -11 -115 -16 -27 -5 -66 -12 -85 -15 -158 -26 -452
-108 -630 -177 -133 -52 -344 -151 -463 -219 -88 -51 -257 -157 -267 -168 -3
-3 -30 -23 -60 -43 -31 -21 -64 -45 -75 -55 -11 -10 -38 -31 -60 -48 -176
-131 -454 -418 -616 -635 -59 -78 -199 -285 -199 -293 0 -3 -19 -35 -41 -73
-84 -138 -210 -418 -274 -609 -36 -106 -89 -297 -101 -361 -2 -12 -13 -64 -23
-115 -11 -52 -23 -125 -26 -164 -4 -38 -9 -73 -11 -76 -6 -10 -17 -199 -18
-304 l-1 -100 325 0 325 0 1 25 c5 106 15 269 18 285 2 11 7 47 11 80 18 160
83 419 151 604 37 98 158 354 215 450 288 492 782 931 1299 1154 19 8 55 24
80 35 181 79 472 154 730 187 180 24 570 23 690 0 14 -3 43 -7 65 -10 22 -3
51 -7 65 -10 14 -3 41 -8 60 -11 75 -13 279 -66 365 -95 424 -145 787 -371
1105 -689 338 -338 576 -735 713 -1190 38 -125 82 -329 92 -425 4 -33 8 -62
10 -65 3 -6 16 -207 19 -290 l1 -35 328 -1 328 -2 -6 147 c-3 80 -7 157 -10
171 -2 14 -6 56 -10 93 -3 37 -8 78 -11 90 -2 12 -6 38 -9 57 -3 19 -7 46 -10
60 -3 14 -8 41 -11 60 -18 99 -75 317 -110 418 -145 422 -328 758 -594 1092
-625 784 -1582 1270 -2570 1306 -85 3 -160 7 -167 9 -6 2 -13 2 -15 1z"/>
<path d="M3349 5466 c-2 -2 -35 -6 -74 -9 -69 -5 -313 -44 -325 -52 -4 -2 -22
-7 -41 -10 -58 -10 -289 -91 -388 -135 -283 -128 -500 -279 -726 -505 -328
-327 -549 -734 -648 -1190 -20 -89 -27 -137 -44 -280 -3 -27 -6 -679 -7 -1447
l-2 -1398 25 -1 c34 -1 4751 -1 4772 0 14 1 15 135 13 1409 -1 774 -5 1427 -8
1450 -3 24 -8 60 -11 80 -22 139 -27 172 -36 212 -20 93 -74 262 -119 375
-170 425 -497 830 -879 1087 -327 222 -648 340 -1091 403 -47 7 -405 16 -411
11z"/>
<path d="M0 1605 c0 -641 3 -1165 8 -1166 45 -5 627 -2 635 3 9 5 12 302 12
1168 l1 1160 -328 0 -328 0 0 -1165z"/>
<path d="M6345 1610 c0 -866 3 -1163 12 -1168 8 -5 575 -8 633 -3 7 1 10 397
10 1166 l0 1165 -328 0 -328 0 1 -1160z"/>
</g>
</svg>
